<?xml version="1.0" encoding="UTF-8" standalone="no"?>
<svg
   xmlns:dc="http://purl.org/dc/elements/1.1/"
   xmlns:cc="http://creativecommons.org/ns#"
   xmlns:rdf="http://www.w3.org/1999/02/22-rdf-syntax-ns#"
   xmlns:svg="http://www.w3.org/2000/svg"
   xmlns="http://www.w3.org/2000/svg"
   viewBox="0 0 526.30939 307.07446"
   height="307.07446"
   width="526.30939"
   xml:space="preserve"
   id="svg2"
   version="1.1"><metadata
     id="metadata8"><rdf:RDF><cc:Work
         rdf:about=""><dc:format>image/svg+xml</dc:format><dc:type
           rdf:resource="http://purl.org/dc/dcmitype/StillImage" /></cc:Work></rdf:RDF></metadata><defs
     id="defs6"><clipPath
       id="clipPath20"
       clipPathUnits="userSpaceOnUse"><path
         id="path18"
         d="M 2,6 V 2310 H 3950 V 6 Z" /></clipPath><clipPath
       id="clipPath158"
       clipPathUnits="userSpaceOnUse"><path
         id="path156"
         d="m 408.578,382.34 h 2232 v 1631 h -2232 z" /></clipPath><clipPath
       id="clipPath170"
       clipPathUnits="userSpaceOnUse"><path
         id="path168"
         d="M 2,6 V 2310 H 3950 V 6 Z" /></clipPath></defs><g
     transform="matrix(1.3333333,0,0,-1.3333333,-0.35729199,307.99999)"
     id="g10"><g
       transform="scale(0.1)"
       id="g12"><g
         id="g14"><g
           clip-path="url(#clipPath20)"
           id="g16"><path
             id="path22"
             style="fill:#ffffff;fill-opacity:1;fill-rule:nonzero;stroke:none"
             d="M 2.67969,6.94141 H 3957.3097 V 2313.0614 H 2.67969 Z" /><path
             id="path24"
             style="fill:#ffffff;fill-opacity:1;fill-rule:nonzero;stroke:none"
             d="m 408.586,382.379 h 2232 v 1630.8 h -2232 z" /><path
             id="path26"
             style="fill:#000000;fill-opacity:1;fill-rule:nonzero;stroke:none"
             d="m 510.039,382.379 v -35" /><path
             id="path28"
             style="fill:none;stroke:#000000;stroke-width:8;stroke-linecap:butt;stroke-linejoin:round;stroke-miterlimit:10;stroke-dasharray:none;stroke-opacity:1"
             d="m 510.039,382.379 v -35" /><g
             transform="scale(10)"
             id="g30"><text
               id="text34"
               style="font-variant:normal;font-weight:normal;font-size:10px;font-family:Arial;-inkscape-font-specification:Arial;writing-mode:lr-tb;fill:#000000;fill-opacity:1;fill-rule:nonzero;stroke:none"
               transform="matrix(1,0,0,-1,47.8242,23.6441)"><tspan
                 id="tspan32"
                 y="0"
                 x="0">0</tspan></text>
</g><path
             id="path36"
             style="fill:#000000;fill-opacity:1;fill-rule:nonzero;stroke:none"
             d="m 928.41,382.379 v -35" /><path
             id="path38"
             style="fill:none;stroke:#000000;stroke-width:8;stroke-linecap:butt;stroke-linejoin:round;stroke-miterlimit:10;stroke-dasharray:none;stroke-opacity:1"
             d="m 928.41,382.379 v -35" /><g
             transform="scale(10)"
             id="g40"><text
               id="text44"
               style="font-variant:normal;font-weight:normal;font-size:10px;font-family:Arial;-inkscape-font-specification:Arial;writing-mode:lr-tb;fill:#000000;fill-opacity:1;fill-rule:nonzero;stroke:none"
               transform="matrix(1,0,0,-1,86.4816,23.6441)"><tspan
                 id="tspan42"
                 y="0"
                 x="0 6.362112">20</tspan></text>
</g><path
             id="path46"
             style="fill:#000000;fill-opacity:1;fill-rule:nonzero;stroke:none"
             d="m 1346.78,382.379 v -35" /><path
             id="path48"
             style="fill:none;stroke:#000000;stroke-width:8;stroke-linecap:butt;stroke-linejoin:round;stroke-miterlimit:10;stroke-dasharray:none;stroke-opacity:1"
             d="m 1346.78,382.379 v -35" /><g
             transform="scale(10)"
             id="g50"><text
               id="text54"
               style="font-variant:normal;font-weight:normal;font-size:10px;font-family:Arial;-inkscape-font-specification:Arial;writing-mode:lr-tb;fill:#000000;fill-opacity:1;fill-rule:nonzero;stroke:none"
               transform="matrix(1,0,0,-1,128.318,23.6441)"><tspan
                 id="tspan52"
                 y="0"
                 x="0 6.3625026">40</tspan></text>
</g><path
             id="path56"
             style="fill:#000000;fill-opacity:1;fill-rule:nonzero;stroke:none"
             d="m 1765.15,382.379 v -35" /><path
             id="path58"
             style="fill:none;stroke:#000000;stroke-width:8;stroke-linecap:butt;stroke-linejoin:round;stroke-miterlimit:10;stroke-dasharray:none;stroke-opacity:1"
             d="m 1765.15,382.379 v -35" /><g
             transform="scale(10)"
             id="g60"><text
               id="text64"
               style="font-variant:normal;font-weight:normal;font-size:10px;font-family:Arial;-inkscape-font-specification:Arial;writing-mode:lr-tb;fill:#000000;fill-opacity:1;fill-rule:nonzero;stroke:none"
               transform="matrix(1,0,0,-1,170.155,23.6441)"><tspan
                 id="tspan62"
                 y="0"
                 x="0 6.3625026">60</tspan></text>
</g><path
             id="path66"
             style="fill:#000000;fill-opacity:1;fill-rule:nonzero;stroke:none"
             d="m 2183.52,382.379 v -35" /><path
             id="path68"
             style="fill:none;stroke:#000000;stroke-width:8;stroke-linecap:butt;stroke-linejoin:round;stroke-miterlimit:10;stroke-dasharray:none;stroke-opacity:1"
             d="m 2183.52,382.379 v -35" /><g
             transform="scale(10)"
             id="g70"><text
               id="text74"
               style="font-variant:normal;font-weight:normal;font-size:10px;font-family:Arial;-inkscape-font-specification:Arial;writing-mode:lr-tb;fill:#000000;fill-opacity:1;fill-rule:nonzero;stroke:none"
               transform="matrix(1,0,0,-1,211.993,23.6441)"><tspan
                 id="tspan72"
                 y="0"
                 x="0 6.3620996">80</tspan></text>
</g><path
             id="path76"
             style="fill:#000000;fill-opacity:1;fill-rule:nonzero;stroke:none"
             d="m 2601.89,382.379 v -35" /><path
             id="path78"
             style="fill:none;stroke:#000000;stroke-width:8;stroke-linecap:butt;stroke-linejoin:round;stroke-miterlimit:10;stroke-dasharray:none;stroke-opacity:1"
             d="m 2601.89,382.379 v -35" /><g
             transform="scale(10)"
             id="g80"><text
               id="text86"
               style="font-variant:normal;font-weight:normal;font-size:10px;font-family:Arial;-inkscape-font-specification:Arial;writing-mode:lr-tb;fill:#000000;fill-opacity:1;fill-rule:nonzero;stroke:none"
               transform="matrix(1,0,0,-1,250.65,23.6441)"><tspan
                 id="tspan82"
                 y="0"
                 x="0 6.3624902 12.72459">100</tspan><tspan
                 id="tspan84"
                 y="13.6719"
                 x="-123.16 -117.13 -110.97765 -106.86633 -101.36828 -95.215935 -88.878044 -84.957336 -82.178825 -79.400711">Percentile</tspan></text>
</g><path
             id="path88"
             style="fill:#000000;fill-opacity:1;fill-rule:nonzero;stroke:none"
             d="m 408.586,529.484 h -35" /><path
             id="path90"
             style="fill:none;stroke:#000000;stroke-width:8;stroke-linecap:butt;stroke-linejoin:round;stroke-miterlimit:10;stroke-dasharray:none;stroke-opacity:1"
             d="m 408.586,529.484 h -35" /><g
             transform="scale(10)"
             id="g92"><text
               id="text96"
               style="font-variant:normal;font-weight:normal;font-size:10px;font-family:Arial;-inkscape-font-specification:Arial;writing-mode:lr-tb;fill:#000000;fill-opacity:1;fill-rule:nonzero;stroke:none"
               transform="matrix(1,0,0,-1,21.1398,49.1516)"><tspan
                 id="tspan94"
                 y="0"
                 x="0 6.3624992">12</tspan></text>
</g><path
             id="path98"
             style="fill:#000000;fill-opacity:1;fill-rule:nonzero;stroke:none"
             d="m 408.586,784.922 h -35" /><path
             id="path100"
             style="fill:none;stroke:#000000;stroke-width:8;stroke-linecap:butt;stroke-linejoin:round;stroke-miterlimit:10;stroke-dasharray:none;stroke-opacity:1"
             d="m 408.586,784.922 h -35" /><g
             transform="scale(10)"
             id="g102"><text
               id="text106"
               style="font-variant:normal;font-weight:normal;font-size:10px;font-family:Arial;-inkscape-font-specification:Arial;writing-mode:lr-tb;fill:#000000;fill-opacity:1;fill-rule:nonzero;stroke:none"
               transform="matrix(1,0,0,-1,21.1398,74.6953)"><tspan
                 id="tspan104"
                 y="0"
                 x="0 6.3624992">14</tspan></text>
</g><path
             id="path108"
             style="fill:#000000;fill-opacity:1;fill-rule:nonzero;stroke:none"
             d="m 408.586,1040.36 h -35" /><path
             id="path110"
             style="fill:none;stroke:#000000;stroke-width:8;stroke-linecap:butt;stroke-linejoin:round;stroke-miterlimit:10;stroke-dasharray:none;stroke-opacity:1"
             d="m 408.586,1040.36 h -35" /><g
             transform="scale(10)"
             id="g112"><text
               id="text116"
               style="font-variant:normal;font-weight:normal;font-size:10px;font-family:Arial;-inkscape-font-specification:Arial;writing-mode:lr-tb;fill:#000000;fill-opacity:1;fill-rule:nonzero;stroke:none"
               transform="matrix(1,0,0,-1,21.1398,100.239)"><tspan
                 id="tspan114"
                 y="0"
                 x="0 6.3624992">16</tspan></text>
</g><path
             id="path118"
             style="fill:#000000;fill-opacity:1;fill-rule:nonzero;stroke:none"
             d="m 408.586,1295.79 h -35" /><path
             id="path120"
             style="fill:none;stroke:#000000;stroke-width:8;stroke-linecap:butt;stroke-linejoin:round;stroke-miterlimit:10;stroke-dasharray:none;stroke-opacity:1"
             d="m 408.586,1295.79 h -35" /><g
             transform="scale(10)"
             id="g122"><text
               id="text126"
               style="font-variant:normal;font-weight:normal;font-size:10px;font-family:Arial;-inkscape-font-specification:Arial;writing-mode:lr-tb;fill:#000000;fill-opacity:1;fill-rule:nonzero;stroke:none"
               transform="matrix(1,0,0,-1,21.1398,125.782)"><tspan
                 id="tspan124"
                 y="0"
                 x="0 6.3624992">18</tspan></text>
</g><path
             id="path128"
             style="fill:#000000;fill-opacity:1;fill-rule:nonzero;stroke:none"
             d="m 408.586,1551.22 h -35" /><path
             id="path130"
             style="fill:none;stroke:#000000;stroke-width:8;stroke-linecap:butt;stroke-linejoin:round;stroke-miterlimit:10;stroke-dasharray:none;stroke-opacity:1"
             d="m 408.586,1551.22 h -35" /><g
             transform="scale(10)"
             id="g132"><text
               id="text136"
               style="font-variant:normal;font-weight:normal;font-size:10px;font-family:Arial;-inkscape-font-specification:Arial;writing-mode:lr-tb;fill:#000000;fill-opacity:1;fill-rule:nonzero;stroke:none"
               transform="matrix(1,0,0,-1,21.1398,151.326)"><tspan
                 id="tspan134"
                 y="0"
                 x="0 6.3624992">20</tspan></text>
</g><path
             id="path138"
             style="fill:#000000;fill-opacity:1;fill-rule:nonzero;stroke:none"
             d="m 408.586,1806.66 h -35" /><path
             id="path140"
             style="fill:none;stroke:#000000;stroke-width:8;stroke-linecap:butt;stroke-linejoin:round;stroke-miterlimit:10;stroke-dasharray:none;stroke-opacity:1"
             d="m 408.586,1806.66 h -35" /><g
             transform="scale(10)"
             id="g142"><text
               id="text146"
               style="font-variant:normal;font-weight:normal;font-size:10px;font-family:Arial;-inkscape-font-specification:Arial;writing-mode:lr-tb;fill:#000000;fill-opacity:1;fill-rule:nonzero;stroke:none"
               transform="matrix(1,0,0,-1,21.1398,176.869)"><tspan
                 id="tspan144"
                 y="0"
                 x="0 6.3624992">22</tspan></text>
<text
               id="text150"
               style="font-variant:normal;font-weight:normal;font-size:10px;font-family:Arial;-inkscape-font-specification:Arial;writing-mode:lr-tb;fill:#000000;fill-opacity:1;fill-rule:nonzero;stroke:none"
               transform="matrix(0,1,1,0,15.0617,15.4496)"><tspan
                 id="tspan148"
                 y="0"
                 x="0 6.0300002 12.182343 16.293671 21.791718 27.944061 34.281952 38.202656 44.33078 50.678436 56.83078 60.009296 66.127655 69.647659 72.826561 78.9543 85.301956 91.649612 96.859612 100.03812 106.37601 111.58601 114.36413 120.70202 127.04967 130.22858 138.85631 144.98442 148.90514 155.05748 159.16881 161.94733 168.07504 170.85356 174.03207 181.73207 187.88441 193.09442 195.87292 202.22058">Percentage of apps using Material Design</tspan></text>
</g></g></g><g
         id="g152"><g
           clip-path="url(#clipPath158)"
           id="g154"><path
             id="path160"
             style="fill:none;stroke:#1f77b4;stroke-width:15;stroke-linecap:square;stroke-linejoin:round;stroke-miterlimit:10;stroke-dasharray:none;stroke-opacity:1"
             d="m 510.039,456.504 20.922,46.961 20.918,24.926 20.918,-3.465 20.918,53.773 20.918,42.43 20.918,-44.867 20.918,20.5 20.918,-71.75 20.922,21.336 20.918,-2.977 20.918,-3.73 20.918,34.332 20.917,37.527 20.918,-22.176 20.918,-28.25 20.918,-10.004 20.922,10.668 20.918,3.942 20.918,33.879 20.918,19.789 20.918,23.109 20.918,21.965 20.918,15.023 20.916,3.121 20.92,8.422 20.92,30.782 20.92,-2.555 20.92,58.742 20.92,25.758 20.91,-1.235 20.92,27.547 20.92,13.696 20.92,13.484 20.92,15.91 20.92,19.199 20.92,21.723 20.91,30.375 20.92,-3.937 20.92,25.039 20.92,2.113 20.92,10.855 20.92,16.918 20.92,24.638 20.91,15.32 20.92,14.22 20.92,8.51 20.92,7.74 20.92,18.58 20.92,7.36 20.91,19.55 20.92,9.12 20.92,0.92 20.92,20.82 20.92,12.49 20.91,7.75 20.93,9.4 20.91,32.27 20.92,21.85 20.92,17.12 20.92,20.92 20.92,13.49 20.91,36.57 20.92,16.45 20.92,30.62 20.92,27.33 20.92,20.97 20.92,14.14 20.92,21.81 20.91,3.75 20.92,17.12 20.92,12.61 20.92,8.97 20.92,12.34 20.92,20.55 20.92,29.12 20.91,24.59 20.92,14.06 20.92,21.8 20.92,38.29 20.92,15.61 20.92,0.94 20.92,19.88 20.91,11.8 20.92,4.91 20.92,9.79 20.92,15.72 20.92,27.18 20.92,25.41 20.92,26.03 20.91,21.37 20.92,4.61 20.92,17.78 20.92,25.62 20.92,12.74 20.91,5.19 20.92,12.3 20.92,33.61" /><path
             id="path162"
             style="fill:none;stroke:#ff7f0e;stroke-width:15;stroke-linecap:square;stroke-linejoin:round;stroke-miterlimit:10;stroke-dasharray:none;stroke-opacity:1"
             d="m 510.039,1140.7 20.922,47.57 20.918,-85.56 20.918,-30.42 20.918,-5.38 20.918,-52.54 20.918,63.04 20.918,-15.72 20.918,34.82 20.922,-37.47 20.918,-10.69 20.918,28.33 20.918,-37.78 20.917,16.83 20.918,-7.98 20.918,44.85 20.918,-9.07 20.922,4.39 20.918,63.62 20.918,56.78 20.918,11.28 20.918,60.59 20.918,-3.42 20.918,17.86 20.916,20.7 20.92,5.46 20.92,32.5 20.92,-32.62 20.92,39.22 20.92,-13.69 20.91,27.78 20.92,6.79 20.92,36.92 20.92,12.8 20.92,-7.06 20.92,11.98 20.92,18.38 20.91,16.8 20.92,-3.38 20.92,5.92 20.92,15.79 20.92,20.69 20.92,26.43 20.92,12.81 20.91,1.21 20.92,-19.33 20.92,-1.26 20.92,-15.42 20.92,1.8 20.92,-24.55 20.91,-6.09 20.92,-10.42 20.92,9.35 20.92,-0.28 20.92,-10.32 20.91,-4.79 20.93,15.77 20.91,8.85 20.92,-0.84 20.92,-9.2 20.92,6.28 20.92,-0.74 20.91,3.9 20.92,3.37 20.92,1.64 20.92,-4.84 20.92,1.63 20.92,-4.65 20.92,13.18 20.91,12.44 20.92,8.73 20.92,6.27 20.92,-4.46 20.92,10.04 20.92,11.2 20.92,27.04 20.91,6.96 20.92,0.31 20.92,13.46 20.92,16.8 20.92,14.41 20.92,6.27 20.92,21.87 20.91,16.92 20.92,17.78 20.92,27.01 20.92,23.34 20.92,24.01 20.92,13.3 20.92,14.17 20.91,0.96 20.92,9.35 20.92,15.22 20.92,24.55 20.92,18.72 20.91,26.4 20.92,24.79 20.92,28.09" /></g></g><g
         id="g164"><g
           clip-path="url(#clipPath170)"
           id="g166"><path
             id="path172"
             style="fill:none;stroke:#000000;stroke-width:8;stroke-linecap:square;stroke-linejoin:miter;stroke-miterlimit:10;stroke-dasharray:none;stroke-opacity:1"
             d="M 408.586,382.379 V 2013.18" /><path
             id="path174"
             style="fill:none;stroke:#000000;stroke-width:8;stroke-linecap:square;stroke-linejoin:miter;stroke-miterlimit:10;stroke-dasharray:none;stroke-opacity:1"
             d="M 2640.59,382.379 V 2013.18" /><path
             id="path176"
             style="fill:none;stroke:#000000;stroke-width:8;stroke-linecap:square;stroke-linejoin:miter;stroke-miterlimit:10;stroke-dasharray:none;stroke-opacity:1"
             d="M 408.586,382.379 H 2640.59" /><path
             id="path178"
             style="fill:none;stroke:#000000;stroke-width:8;stroke-linecap:square;stroke-linejoin:miter;stroke-miterlimit:10;stroke-dasharray:none;stroke-opacity:1"
             d="M 408.586,2013.18 H 2640.59" /><path
             id="path180"
             style="fill:#ffffff;fill-opacity:1;fill-rule:nonzero;stroke:none"
             d="m 2772.19,1689.74 h 1093.12 c 13.33,0 20,6.67 20,20 v 283.44 c 0,13.33 -6.67,20 -20,20 H 2772.19 c -13.34,0 -20,-6.67 -20,-20 v -283.44 c 0,-13.33 6.66,-20 20,-20" /><path
             id="path182"
             style="fill:none;stroke:#cccccc;stroke-width:10;stroke-linecap:butt;stroke-linejoin:miter;stroke-miterlimit:10;stroke-dasharray:none;stroke-opacity:1"
             d="m 2772.19,1689.74 h 1093.12 c 13.33,0 20,6.67 20,20 v 283.44 c 0,13.33 -6.67,20 -20,20 H 2772.19 c -13.34,0 -20,-6.67 -20,-20 v -283.44 c 0,-13.33 6.66,-20 20,-20 z" /><path
             id="path184"
             style="fill:none;stroke:#1f77b4;stroke-width:15;stroke-linecap:square;stroke-linejoin:round;stroke-miterlimit:10;stroke-dasharray:none;stroke-opacity:1"
             d="m 2792.19,1932.24 h 200" /><g
             transform="scale(10)"
             id="g186"><text
               id="text190"
               style="font-variant:normal;font-weight:normal;font-size:10px;font-family:Arial;-inkscape-font-specification:Arial;writing-mode:lr-tb;fill:#000000;fill-opacity:1;fill-rule:nonzero;stroke:none"
               transform="matrix(1,0,0,-1,307.219,189.724)"><tspan
                 id="tspan188"
                 y="0"
                 x="0 6.8406348 12.758609 18.910952 23.02227 29.150391 35.498047 41.650391 44.828903 51.77734 57.905067 61.826168 64.604286 70.942184">Average Rating</tspan></text>
</g><path
             id="path192"
             style="fill:none;stroke:#ff7f0e;stroke-width:15;stroke-linecap:square;stroke-linejoin:round;stroke-miterlimit:10;stroke-dasharray:none;stroke-opacity:1"
             d="m 2792.19,1785.52 h 200" /><g
             transform="scale(10)"
             id="g194"><text
               id="text198"
               style="font-variant:normal;font-weight:normal;font-size:10px;font-family:Arial;-inkscape-font-specification:Arial;writing-mode:lr-tb;fill:#000000;fill-opacity:1;fill-rule:nonzero;stroke:none"
               transform="matrix(1,0,0,-1,307.219,175.052)"><tspan
                 id="tspan196"
                 y="0"
                 x="0 7.48 13.597974 16.776875 19.955385 26.07375 29.59375 32.772652 35.72187 42.059769 47.269772 51.190868 57.3186 60.097111 62.875229">No. of Installs</tspan></text>
</g></g></g></g></g></svg>